<mxfile host="app.diagrams.net" agent="Mozilla/5.0 (Windows NT 10.0; Win64; x64; rv:131.0) Gecko/20100101 Firefox/131.0" version="24.7.17">
  <diagram id="_fVAR8FcED2z_k-xxS9j" name="1">
    <mxGraphModel dx="2074" dy="1134" grid="1" gridSize="10" guides="1" tooltips="1" connect="1" arrows="1" fold="1" page="1" pageScale="1" pageWidth="827" pageHeight="1169" math="0" shadow="0">
      <root>
        <mxCell id="0" />
        <mxCell id="1" parent="0" />
        <mxCell id="z73YoElL5h7oD8jSKhIu-1" value="" style="image;html=1;image=img/lib/clip_art/networking/Repeater_128x128.png" vertex="1" parent="1">
          <mxGeometry x="374" y="179" width="80" height="80" as="geometry" />
        </mxCell>
        <mxCell id="z73YoElL5h7oD8jSKhIu-2" value="" style="shape=mxgraph.signs.tech.computer;html=1;pointerEvents=1;fillColor=#000000;strokeColor=none;verticalLabelPosition=bottom;verticalAlign=top;align=center;" vertex="1" parent="1">
          <mxGeometry x="60" y="170" width="98" height="98" as="geometry" />
        </mxCell>
        <mxCell id="z73YoElL5h7oD8jSKhIu-3" value="" style="shape=mxgraph.signs.tech.computer;html=1;pointerEvents=1;fillColor=#000000;strokeColor=none;verticalLabelPosition=bottom;verticalAlign=top;align=center;" vertex="1" parent="1">
          <mxGeometry x="650" y="170" width="98" height="98" as="geometry" />
        </mxCell>
        <mxCell id="z73YoElL5h7oD8jSKhIu-6" value="" style="endArrow=none;html=1;rounded=0;" edge="1" parent="1" source="z73YoElL5h7oD8jSKhIu-2" target="z73YoElL5h7oD8jSKhIu-1">
          <mxGeometry width="50" height="50" relative="1" as="geometry">
            <mxPoint x="158" y="269" as="sourcePoint" />
            <mxPoint x="228.71067811865476" y="219" as="targetPoint" />
          </mxGeometry>
        </mxCell>
        <mxCell id="z73YoElL5h7oD8jSKhIu-7" value="" style="endArrow=none;html=1;rounded=0;entryX=0.071;entryY=0.469;entryDx=0;entryDy=0;entryPerimeter=0;" edge="1" parent="1" source="z73YoElL5h7oD8jSKhIu-1" target="z73YoElL5h7oD8jSKhIu-3">
          <mxGeometry width="50" height="50" relative="1" as="geometry">
            <mxPoint x="454" y="269" as="sourcePoint" />
            <mxPoint x="524.7106781186548" y="219" as="targetPoint" />
          </mxGeometry>
        </mxCell>
        <mxCell id="z73YoElL5h7oD8jSKhIu-8" value="&lt;h1 style=&quot;margin-top: 0px;&quot;&gt;&lt;font style=&quot;font-size: 24px;&quot;&gt;Сегмент 2&lt;br&gt;&lt;/font&gt;&lt;/h1&gt;&lt;p&gt;&lt;font style=&quot;font-size: 24px;&quot;&gt;Оптоволокно&lt;/font&gt;&lt;/p&gt;&lt;p&gt;&lt;font style=&quot;font-size: 24px;&quot;&gt;150 м&lt;br&gt;&lt;/font&gt;&lt;/p&gt;" style="text;html=1;whiteSpace=wrap;overflow=hidden;rounded=0;" vertex="1" parent="1">
          <mxGeometry x="480" y="80" width="180" height="120" as="geometry" />
        </mxCell>
        <mxCell id="z73YoElL5h7oD8jSKhIu-9" value="&lt;h1 style=&quot;margin-top: 0px;&quot;&gt;&lt;font style=&quot;font-size: 24px;&quot;&gt;Сегмент 1&lt;br&gt;&lt;/font&gt;&lt;/h1&gt;&lt;p&gt;&lt;font style=&quot;font-size: 24px;&quot;&gt;UTP Cat 3&lt;/font&gt;&lt;/p&gt;&lt;p&gt;&lt;font style=&quot;font-size: 24px;&quot;&gt;100 м&lt;br&gt;&lt;/font&gt;&lt;/p&gt;" style="text;html=1;whiteSpace=wrap;overflow=hidden;rounded=0;" vertex="1" parent="1">
          <mxGeometry x="204" y="80" width="180" height="120" as="geometry" />
        </mxCell>
        <mxCell id="z73YoElL5h7oD8jSKhIu-11" value="&lt;h1 style=&quot;margin-top: 0px;&quot;&gt;Компьютер 1&lt;br&gt;(TX/FX)&lt;/h1&gt;" style="text;html=1;whiteSpace=wrap;overflow=hidden;rounded=0;" vertex="1" parent="1">
          <mxGeometry x="19" y="300" width="180" height="120" as="geometry" />
        </mxCell>
        <mxCell id="z73YoElL5h7oD8jSKhIu-12" value="&lt;h1 style=&quot;margin-top: 0px;&quot;&gt;Компьютер 2&lt;br&gt;(TX/FX)&lt;/h1&gt;" style="text;html=1;whiteSpace=wrap;overflow=hidden;rounded=0;" vertex="1" parent="1">
          <mxGeometry x="620" y="290" width="180" height="120" as="geometry" />
        </mxCell>
        <mxCell id="z73YoElL5h7oD8jSKhIu-13" value="&lt;h1 style=&quot;margin-top: 0px;&quot;&gt;Повторитель класса I&lt;br&gt;&lt;/h1&gt;" style="text;html=1;whiteSpace=wrap;overflow=hidden;rounded=0;" vertex="1" parent="1">
          <mxGeometry x="340" y="280" width="180" height="120" as="geometry" />
        </mxCell>
      </root>
    </mxGraphModel>
  </diagram>
</mxfile>
